<?xml version="1.0" standalone="no"?>
<!DOCTYPE svg PUBLIC "-//W3C//DTD SVG 20010904//EN"
 "http://www.w3.org/TR/2001/REC-SVG-20010904/DTD/svg10.dtd">
<svg version="1.0" xmlns="http://www.w3.org/2000/svg"
 width="16.000000pt" height="16.000000pt" viewBox="0 0 16.000000 16.000000"
 preserveAspectRatio="xMidYMid meet">
<metadata>
Created by potrace 1.11, written by Peter Selinger 2001-2013
</metadata>
<g transform="translate(0.000000,16.000000) scale(0.003131,-0.003131)"
fill="#000000" stroke="none">
<path d="M3818 4600 c-95 -25 -142 -45 -217 -94 -254 -166 -370 -473 -290
-770 16 -60 52 -134 97 -205 23 -35 42 -68 42 -72 0 -9 -202 -245 -236 -276
l-25 -23 -67 34 c-140 72 -273 102 -442 100 -362 -5 -683 -197 -850 -508 -30
-57 -67 -143 -76 -176 -2 -8 -8 -33 -14 -55 -5 -22 -12 -60 -16 -85 -3 -25
-10 -49 -15 -55 -10 -10 -255 -18 -296 -10 -16 4 -26 20 -42 75 -70 228 -272
390 -505 403 -285 17 -530 -166 -601 -448 -55 -218 47 -467 245 -598 139 -92
335 -117 490 -64 107 36 167 72 236 142 62 63 106 139 139 242 9 28 21 56 28
61 7 5 76 9 155 8 150 -1 161 -5 162 -48 0 -24 -2 -17 26 -119 76 -283 246
-492 508 -623 83 -41 182 -76 261 -92 62 -12 245 -11 319 2 42 7 123 29 179
49 162 58 133 70 282 -116 72 -89 147 -184 167 -211 l37 -49 -48 -74 c-71
-109 -93 -177 -97 -311 -3 -88 0 -125 16 -182 73 -262 305 -440 583 -448 166
-4 299 49 417 167 183 183 237 488 125 709 -91 179 -303 322 -496 334 -82 5
-185 -12 -270 -45 -42 -16 -83 -27 -90 -23 -20 8 -319 389 -319 406 0 7 23 36
52 63 138 134 242 324 284 520 14 66 12 290 -2 355 -8 36 -17 75 -20 88 -8 39
-56 154 -85 203 -63 107 -82 133 -176 236 -13 13 -23 28 -23 33 0 8 35 52 85
106 6 6 42 48 79 93 38 44 77 81 86 81 10 0 37 -11 61 -24 24 -14 73 -34 109
-45 333 -104 688 47 835 354 57 119 70 178 69 310 -1 233 -95 422 -279 562
-153 116 -388 162 -577 113z"/>
<path d="M1809 4366 c-2 -2 -21 -6 -43 -9 -69 -9 -179 -72 -238 -136 -87 -94
-126 -185 -132 -308 -11 -222 127 -411 350 -481 56 -18 210 -12 272 9 205 70
327 246 323 464 -4 216 -146 395 -358 450 -52 14 -164 21 -174 11z"/>
<path d="M4243 2515 c-195 -68 -322 -242 -323 -445 -2 -354 349 -584 669 -439
117 53 206 148 252 271 28 71 34 208 13 280 -79 268 -357 420 -611 333z"/>
<path d="M1645 1268 c-136 -25 -269 -131 -330 -261 -38 -82 -47 -124 -46 -217
3 -173 104 -336 254 -410 66 -32 87 -38 177 -49 188 -22 382 84 469 258 38 75
46 113 46 221 -1 160 -76 302 -203 387 -103 68 -240 95 -367 71z"/>
</g>
</svg>
